<svg width="24" height="24" viewBox="0 0 24 24" fill="none" xmlns="http://www.w3.org/2000/svg">
<path d="M9.42843 18.4612C8.95529 18.4612 8.57129 18.0477 8.57129 17.5382V10.1535C8.57129 9.64401 8.95529 9.23047 9.42843 9.23047C9.90157 9.23047 10.2856 9.64401 10.2856 10.1535V17.5382C10.2856 18.0477 9.90157 18.4612 9.42843 18.4612Z" fill="#DE1F5B"/>
<path d="M14.5714 18.4612C14.0982 18.4612 13.7142 18.0477 13.7142 17.5382V10.1535C13.7142 9.64401 14.0982 9.23047 14.5714 9.23047C15.0445 9.23047 15.4285 9.64401 15.4285 10.1535V17.5382C15.4285 18.0477 15.0445 18.4612 14.5714 18.4612Z" fill="#DE1F5B"/>
<path d="M6 24C4.58171 24 3.42857 22.7582 3.42857 21.2308V5.53846H0.857143C0.384 5.53846 0 5.12492 0 4.61538C0 4.10585 0.384 3.69231 0.857143 3.69231H6.85714V2.76923C6.85714 1.24185 8.01029 0 9.42857 0H14.5714C15.9897 0 17.1429 1.24185 17.1429 2.76923V3.69231H23.1429C23.616 3.69231 24 4.10585 24 4.61538C24 5.12492 23.616 5.53846 23.1429 5.53846H20.5714V21.2308C20.5714 22.7582 19.4183 24 18 24H6ZM5.14286 21.2308C5.14286 21.7403 5.52686 22.1538 6 22.1538H18C18.4731 22.1538 18.8571 21.7403 18.8571 21.2308V5.53846H5.14286V21.2308V21.2308ZM15.4286 3.69231V2.76923C15.4286 2.25969 15.0446 1.84615 14.5714 1.84615H9.42857C8.95543 1.84615 8.57143 2.25969 8.57143 2.76923V3.69231H15.4286Z" fill="#DE1F5B"/>
</svg>
