<svg width="18" height="18" viewBox="0 0 18 18" fill="none" xmlns="http://www.w3.org/2000/svg">
<path fill-rule="evenodd" clip-rule="evenodd" d="M3.15976 3.15976C3.37277 2.94675 3.71814 2.94675 3.93115 3.15976L9 8.22861L14.0689 3.15976C14.2819 2.94675 14.6272 2.94675 14.8402 3.15976C15.0533 3.37277 15.0533 3.71814 14.8402 3.93115L9.77139 9L14.8402 14.0689C15.0533 14.2819 15.0533 14.6272 14.8402 14.8402C14.6272 15.0533 14.2819 15.0533 14.0689 14.8402L9 9.77139L3.93115 14.8402C3.71814 15.0533 3.37277 15.0533 3.15976 14.8402C2.94675 14.6272 2.94675 14.2819 3.15976 14.0689L8.22861 9L3.15976 3.93115C2.94675 3.71814 2.94675 3.37277 3.15976 3.15976Z" fill="#474747"/>
</svg>
