<svg width="86" height="88" viewBox="0 0 86 88" fill="none" xmlns="http://www.w3.org/2000/svg">
<path d="M7.99342 46.602L10.2359 46.6099L10.2519 42.2744L13.6552 42.2863L13.6393 46.6218L15.8739 46.6296L15.8955 40.722L8.01505 40.6944L7.99342 46.602ZM21.9047 44.8006C24.0525 44.8082 24.6955 43.9052 24.6993 42.8333L24.6998 42.7062C24.7038 41.6184 24.0911 40.7507 21.9196 40.7431L17.0239 40.7259L17.0023 46.6336L19.2448 46.6414L19.2516 44.7913L21.9047 44.8006ZM19.261 42.2107L21.6457 42.219C22.1748 42.2209 22.3873 42.4202 22.386 42.7616L22.3859 42.7854C22.3847 43.111 22.1549 43.3246 21.6416 43.3227L19.2569 43.3144L19.261 42.2107ZM29.6524 40.659C25.8464 40.6457 25.3581 42.4624 25.354 43.574L25.3532 43.8122C25.3491 44.916 25.8239 46.7757 29.63 46.789L29.9853 46.7903C33.7835 46.8035 34.2719 44.9472 34.2759 43.8435L34.2769 43.6053C34.2809 42.4936 33.798 40.6736 30.0078 40.6603L29.6524 40.659ZM31.9547 43.7639C31.9524 44.3992 31.5468 45.1997 29.8096 45.1936C28.0724 45.1875 27.6727 44.3524 27.675 43.733L27.6753 43.6378C27.6777 43.0104 28.0516 42.2415 29.8203 42.2477C31.5575 42.2538 31.9575 43.0255 31.9551 43.6527L31.9547 43.7639ZM36.6673 46.7025L38.3008 44.8581L39.9365 46.714L42.6922 46.7236L40.0424 43.6573L42.5954 40.8156L39.9344 40.8062L38.4277 42.5399L36.9417 40.7957L34.0753 40.7857L36.6706 43.6692L33.9669 46.6931L36.6673 46.7025ZM46.7359 40.7189C42.9299 40.7056 42.4416 42.5222 42.4375 43.6339L42.4367 43.8721C42.4326 44.9758 42.9074 46.8356 46.7134 46.8489L47.0688 46.8502C50.8669 46.8635 51.3554 45.0071 51.3594 43.9034L51.3603 43.6652C51.3644 42.5535 50.8814 40.7335 47.0913 40.7202L46.7359 40.7189ZM49.0382 43.8238C49.0359 44.4591 48.6303 45.2596 46.8931 45.2535C45.1559 45.2474 44.7562 44.4123 44.7584 43.7929L44.7588 43.6977C44.7611 43.0703 45.1351 42.3015 46.9038 42.3076C48.641 42.3137 49.0409 43.0853 49.0386 43.7126L49.0382 43.8238ZM51.6836 45.183L51.6741 47.7874L53.7824 47.7948L53.7862 46.7625L58.5319 46.7791L58.5281 47.8114L60.6365 47.8188L60.646 45.2143L59.6984 45.2111L59.7143 40.8756L52.884 40.8517C52.8744 43.4561 52.7994 44.5357 52.4575 45.1857L51.6836 45.183ZM54.5342 45.1929C54.7887 44.6936 54.8954 43.6141 54.8997 42.431L57.466 42.44L57.4559 45.2032L54.5342 45.1929ZM66.5351 46.8072L69.4566 46.8175L65.9388 43.5813L69.3677 40.9095L66.5803 40.8997L63.6818 43.2241L63.6903 40.8896L61.4477 40.8817L61.4261 46.7893L63.6687 46.7972L63.6784 44.1531L66.5351 46.8072ZM74.9993 44.4071L73.0489 44.4003L74.0197 42.3709L74.9993 44.4071ZM76.167 46.841L78.6228 46.8496L75.5727 40.9313L72.5563 40.9206L69.6289 46.8181L71.903 46.8261L72.3566 45.8748L75.7125 45.8866L76.167 46.841Z" fill="#00FF19"/>
<path d="M17.5782 28.6937H15.83V11.2H33.7202C34.8306 24.4133 52.2272 22.4282 52.3507 11.2H70.2408V28.6937H68.5444V13.0562H54.2101C52.5445 25.5252 33.6529 25.4632 31.9125 13.0562H17.5782V28.6937Z" fill="#00FF19"/>
<path d="M68.6556 59.3062L70.4039 59.3062L70.4039 76.7999L52.5137 76.7999C51.4032 63.5866 34.0067 65.5717 33.8832 76.7999L15.993 76.7999L15.993 59.3062L17.6895 59.3062L17.6895 74.9436L32.0237 74.9436C33.6894 62.4746 52.581 62.5367 54.3214 74.9436L68.6556 74.9436L68.6556 59.3062Z" fill="#00FF19"/>
</svg>
